<svg width="64" height="64" viewBox="0 0 64 64" fill="none" xmlns="http://www.w3.org/2000/svg">
  <rect width="64" height="64" rx="14" fill="#0F172A"/>
  <path d="M48 29.5C48 41 32 52 32 52C32 52 16 41 16 29.5C16 23.1487 21.3726 18 28 18C30.9373 18 33.6365 19.0716 35.728 20.9008C37.8195 19.0716 40.5187 18 43.456 18C50.0834 18 55.456 23.1487 55.456 29.5H48Z" fill="#38BDF8"/>
  <path d="M24.5 31.5L30.2 37.2L39.5 27.9" stroke="white" stroke-width="4" stroke-linecap="round" stroke-linejoin="round"/>
</svg>
<svg width="64" height="64" viewBox="0 0 64 64" fill="none" xmlns="http://www.w3.org/2000/svg">
  <rect width="64" height="64" rx="14" fill="#0F172A"/>
  <path d="M48 29.5C48 41 32 52 32 52C32 52 16 41 16 29.5C16 23.1487 21.3726 18 28 18C30.9373 18 33.6365 19.0716 35.728 20.9008C37.8195 19.0716 40.5187 18 43.456 18C50.0834 18 55.456 23.1487 55.456 29.5H48Z" fill="#38BDF8"/>
  <path d="M24.5 31.5L30.2 37.2L39.5 27.9" stroke="white" stroke-width="4" stroke-linecap="round" stroke-linejoin="round"/>
</svg>

